# Blender v2.80 (sub 44) OBJ File: 'sections.blend'
# www.blender.org
o end_Plane.004
v 0.500000 0.000000 0.500000
v 0.500000 0.000000 -0.500000
v -0.500000 0.000000 0.500000
v -0.500000 0.000000 -0.500000
v 0.250000 0.000000 0.500000
v 0.250000 0.000000 -0.500000
v -0.250000 0.000000 -0.500000
v -0.250000 0.000000 0.500000
v 0.250000 0.000000 0.250000
v 0.500000 0.000000 0.250000
v 0.500000 0.000000 -0.250000
v 0.250000 0.000000 -0.250000
v -0.500000 0.000000 -0.250000
v -0.250000 0.000000 -0.250000
v -0.500000 0.000000 0.250000
v -0.250000 0.000000 0.250000
v 0.500000 0.250000 0.500000
v 0.500000 0.250000 -0.500000
v -0.500000 0.250000 0.500000
v -0.500000 0.250000 -0.500000
v 0.250000 0.250000 0.500000
v 0.250000 0.250000 -0.500000
v -0.250000 0.250000 -0.500000
v -0.250000 0.250000 0.500000
v 0.250000 0.250000 0.250000
v 0.500000 0.250000 0.250000
v 0.500000 0.250000 -0.250000
v 0.250000 0.250000 -0.250000
v -0.500000 0.250000 -0.250000
v -0.250000 0.250000 -0.250000
v -0.500000 0.250000 0.250000
v -0.250000 0.250000 0.250000
vt 0.750000 0.750000
vt 0.750000 1.000000
vt 1.000000 1.000000
vt 1.000000 0.750000
vt 0.750000 0.000000
vt 0.750000 0.250000
vt 1.000000 0.250000
vt 1.000000 0.000000
vt 0.000000 0.000000
vt 0.000000 0.250000
vt 0.250000 0.250000
vt 0.250000 0.000000
vt 0.000000 0.750000
vt 0.000000 1.000000
vt 0.250000 1.000000
vt 0.250000 0.750000
vt 0.750000 0.750000
vt 1.000000 0.750000
vt 1.000000 1.000000
vt 0.750000 1.000000
vt 0.750000 0.000000
vt 1.000000 0.000000
vt 1.000000 0.250000
vt 0.750000 0.250000
vt 0.000000 0.000000
vt 0.250000 0.000000
vt 0.250000 0.250000
vt 0.000000 0.250000
vt 0.000000 0.750000
vt 0.250000 0.750000
vt 0.250000 1.000000
vt 0.000000 1.000000
vn 0.0000 -1.0000 0.0000
vn 0.0000 1.0000 0.0000
vn 0.0000 0.0000 -1.0000
vn 0.0000 0.0000 1.0000
vn -1.0000 0.0000 0.0000
vn 1.0000 0.0000 0.0000
s off
f 14/1/1 13/2/1 4/3/1 7/4/1
f 11/5/1 12/6/1 6/7/1 2/8/1
f 1/9/1 5/10/1 9/11/1 10/12/1
f 8/13/1 3/14/1 15/15/1 16/16/1
f 13/2/1 14/1/1 16/16/1 15/15/1
f 12/6/1 14/1/1 7/4/1 6/7/1
f 9/11/1 12/6/1 11/5/1 10/12/1
f 30/17/2 23/18/2 20/19/2 29/20/2
f 27/21/2 18/22/2 22/23/2 28/24/2
f 17/25/2 26/26/2 25/27/2 21/28/2
f 24/29/2 32/30/2 31/31/2 19/32/2
f 29/20/2 31/31/2 32/30/2 30/17/2
f 28/24/2 22/23/2 23/18/2 30/17/2
f 25/27/2 26/26/2 27/21/2 28/24/2
f 6/7/3 22/23/3 18/22/3 2/8/3
f 12/6/4 28/24/4 30/17/4 14/1/4
f 13/2/5 29/20/5 20/19/5 4/3/5
f 5/10/5 21/28/5 25/27/5 9/11/5
f 11/5/6 27/21/6 26/26/6 10/12/6
f 8/13/4 24/29/4 19/32/4 3/14/4
f 9/11/5 25/27/5 28/24/5 12/6/5
f 16/16/6 32/30/6 24/29/6 8/13/6
f 1/9/4 17/25/4 21/28/4 5/10/4
f 10/12/6 26/26/6 17/25/6 1/9/6
f 2/8/6 18/22/6 27/21/6 11/5/6
f 14/1/6 30/17/6 32/30/6 16/16/6
f 4/3/3 20/19/3 23/18/3 7/4/3
f 15/15/5 31/31/5 29/20/5 13/2/5
f 3/14/5 19/32/5 31/31/5 15/15/5
f 7/4/3 23/18/3 22/23/3 6/7/3
