# Blender v2.80 (sub 44) OBJ File: 'camera_final.blend'
# www.blender.org
mtllib camera_base.mtl
o Cube
v 1.000000 0.453966 -0.764412
v 0.764412 0.453966 -1.000000
v 0.855087 0.272463 -1.118620
v 1.118620 0.272463 -0.855087
v 0.764412 0.453966 1.000000
v 1.000000 0.453966 0.764412
v 1.118620 0.272463 0.855087
v 0.855087 0.272463 1.118620
v -0.764412 0.453966 -1.000000
v -1.000000 0.453966 -0.764412
v -1.118620 0.272463 -0.855087
v -0.855087 0.272463 -1.118620
v -1.000000 0.453966 0.764412
v -0.764412 0.453966 1.000000
v -0.855087 0.272463 1.118620
v -1.118620 0.272463 0.855087
v 0.652615 0.478444 -0.853747
v 0.853747 0.478444 -0.652615
v -0.652615 0.478444 0.853747
v -0.853747 0.478444 0.652615
v 0.853747 0.478444 0.652615
v 0.652615 0.478444 0.853747
v -0.853747 0.478444 -0.652615
v -0.652615 0.478444 -0.853747
v 0.558445 0.396801 -0.730555
v 0.730555 0.396801 -0.558445
v -0.558445 0.396801 0.730555
v -0.730555 0.396801 0.558445
v 0.730555 0.396801 0.558445
v 0.558445 0.396801 0.730555
v -0.730555 0.396801 -0.558445
v -0.558445 0.396801 -0.730555
v 0.287364 0.396801 -0.375929
v 0.375929 0.396801 -0.287364
v -0.287364 0.396801 0.375929
v -0.375929 0.396801 0.287364
v 0.375929 0.396801 0.287364
v 0.287364 0.396801 0.375929
v -0.375929 0.396801 -0.287364
v -0.287364 0.396801 -0.375929
v 0.287364 0.713444 -0.375929
v 0.375929 0.713444 -0.287364
v -0.287364 0.713444 0.375929
v -0.375929 0.713444 0.287364
v 0.375929 0.713444 0.287364
v 0.287364 0.713444 0.375929
v -0.375929 0.713444 -0.287364
v -0.287364 0.713444 -0.375929
v 0.347901 0.713444 -0.455122
v 0.455122 0.713444 -0.347901
v -0.347901 0.713444 0.455122
v -0.455122 0.713444 0.347901
v 0.455122 0.713444 0.347901
v 0.347901 0.713444 0.455122
v -0.455122 0.713444 -0.347901
v -0.347901 0.713444 -0.455122
v 0.347901 0.809912 -0.455122
v 0.455122 0.809912 -0.347901
v -0.347901 0.809912 0.455122
v -0.455122 0.809912 0.347901
v 0.455122 0.809912 0.347901
v 0.347901 0.809912 0.455122
v -0.455122 0.809912 -0.347901
v -0.347901 0.809912 -0.455122
v 0.280611 0.809912 -0.367093
v 0.367093 0.809912 -0.280611
v -0.280611 0.809912 0.367093
v -0.367093 0.809912 0.280611
v 0.367093 0.809912 0.280611
v 0.280611 0.809912 0.367093
v -0.367093 0.809912 -0.280611
v -0.280611 0.809912 -0.367093
v 0.280611 1.200226 -0.367093
v 0.367093 1.200226 -0.280611
v -0.280611 1.200226 0.367093
v -0.367093 1.200226 0.280611
v 0.367093 1.200226 0.280611
v 0.280611 1.200226 0.367093
v -0.367093 1.200226 -0.280611
v -0.280611 1.200226 -0.367093
v 1.118620 -0.374735 -0.855087
v 0.855087 -0.374735 -1.118620
v -1.118620 -0.374735 0.855087
v -0.855087 -0.374735 1.118620
v 0.855087 -0.374735 1.118620
v 1.118620 -0.374735 0.855087
v -0.855087 -0.374735 -1.118620
v -1.118620 -0.374735 -0.855087
vt 0.125000 0.529449
vt 0.125000 0.720552
vt 0.125000 0.720552
vt 0.125000 0.529449
vt 0.375000 0.529449
vt 0.625000 0.529448
vt 0.625000 0.720552
vt 0.375000 0.720552
vt 0.375000 0.279448
vt 0.625000 0.279448
vt 0.625000 0.470552
vt 0.375000 0.470552
vt 0.625000 0.529448
vt 0.625000 0.720552
vt 0.375000 0.529448
vt 0.375000 0.720552
vt 0.125000 0.500000
vt 0.375000 0.500000
vt 0.375000 0.250000
vt 0.625000 0.250000
vt 0.875000 0.529448
vt 0.625000 0.529449
vt 0.625000 0.500000
vt 0.875000 0.500000
vt 0.875000 0.720552
vt 0.625000 0.720552
vt 0.625000 0.470552
vt 0.625000 0.279448
vt 0.625000 0.279448
vt 0.625000 0.470552
vt 0.875000 0.500000
vt 0.875000 0.529448
vt 0.375000 0.529448
vt 0.375000 0.720552
vt 0.625000 0.250000
vt 0.875000 0.720552
vt 0.375000 0.500000
vt 0.625000 0.250000
vt 0.625000 0.250000
vt 0.625000 0.279448
vt 0.375000 0.529448
vt 0.375000 0.720552
vt 0.875000 0.500000
vt 0.875000 0.529448
vt 0.625000 0.529448
vt 0.625000 0.720552
vt 0.875000 0.720552
vt 0.375000 0.500000
vt 0.625000 0.720552
vt 0.625000 0.529448
vt 0.625000 0.529448
vt 0.625000 0.720552
vt 0.375000 0.500000
vt 0.375000 0.529448
vt 0.625000 0.470552
vt 0.375000 0.720552
vt 0.875000 0.500000
vt 0.875000 0.529448
vt 0.875000 0.720552
vt 0.875000 0.529448
vt 0.875000 0.500000
vt 0.875000 0.500000
vt 0.875000 0.529448
vt 0.875000 0.720552
vt 0.625000 0.250000
vt 0.625000 0.279448
vt 0.375000 0.500000
vt 0.375000 0.529448
vt 0.625000 0.470552
vt 0.375000 0.720552
vt 0.625000 0.470552
vt 0.625000 0.279448
vt 0.625000 0.279448
vt 0.625000 0.470552
vt 0.625000 0.529448
vt 0.625000 0.720552
vt 0.875000 0.720552
vt 0.625000 0.250000
vt 0.375000 0.500000
vt 0.375000 0.529448
vt 0.375000 0.720552
vt 0.875000 0.720552
vt 0.875000 0.529448
vt 0.875000 0.529448
vt 0.875000 0.720552
vt 0.375000 0.529448
vt 0.375000 0.720552
vt 0.875000 0.500000
vt 0.625000 0.529448
vt 0.625000 0.720552
vt 0.625000 0.250000
vt 0.375000 0.500000
vt 0.625000 0.720552
vt 0.625000 0.529448
vt 0.625000 0.529448
vt 0.625000 0.720552
vt 0.625000 0.250000
vt 0.625000 0.279448
vt 0.375000 0.500000
vt 0.375000 0.529448
vt 0.625000 0.470552
vt 0.375000 0.720552
vt 0.875000 0.500000
vt 0.375000 0.029448
vt 0.404448 0.000000
vt 0.595551 0.000000
vt 0.625000 0.029448
vt 0.625000 0.220552
vt 0.595551 0.250000
vt 0.404449 0.250000
vt 0.375000 0.220552
vt 0.875000 0.529448
vt 0.875000 0.720552
vt 0.625000 0.250000
vt 0.625000 0.279448
vt 0.375000 0.500000
vt 0.375000 0.529448
vt 0.625000 0.470552
vt 0.375000 0.720552
vt 0.875000 0.500000
vt 0.375000 0.779449
vt 0.404448 0.750000
vt 0.595551 0.750000
vt 0.625000 0.779449
vt 0.625000 0.970551
vt 0.595551 1.000000
vt 0.404449 1.000000
vt 0.375000 0.970551
vt 0.625000 0.720552
vt 0.625000 0.529449
vt 0.625000 0.500000
vt 0.375000 0.470552
vt 0.375000 0.279448
vt 0.375000 0.250000
vt 0.375000 0.529449
vt 0.125000 0.500000
vt 0.375000 0.720552
vn 1.0000 0.0000 0.0000
vn -0.8371 0.5471 0.0000
vn 0.0000 0.5471 0.8371
vn -0.1651 0.9863 0.0000
vn 0.8371 0.5471 0.0000
vn 0.5480 0.6319 -0.5480
vn -0.5480 0.6319 0.5480
vn 0.5480 0.6319 0.5480
vn -0.5480 0.6319 -0.5480
vn 0.0000 0.5471 -0.8371
vn 0.0000 0.8336 -0.5524
vn -0.0940 0.9911 -0.0940
vn 0.0000 0.9863 0.1651
vn 0.1651 0.9863 0.0000
vn 0.0940 0.9911 0.0940
vn 0.0000 0.9863 -0.1651
vn -0.0940 0.9911 0.0940
vn 0.0940 0.9911 -0.0940
vn 0.0000 1.0000 0.0000
vn -0.5524 0.8336 0.0000
vn 0.3317 0.8831 0.3317
vn 0.3317 0.8831 -0.3317
vn 0.5524 0.8336 0.0000
vn 0.0000 0.8336 0.5524
vn -0.3317 0.8831 -0.3317
vn -0.3317 0.8831 0.3317
vn -1.0000 0.0000 0.0000
vn 0.0000 -1.0000 0.0000
vn 0.0000 0.0000 -1.0000
vn 0.7071 0.0000 0.7071
vn 0.7071 0.0000 -0.7071
vn 0.0000 0.0000 1.0000
vn -0.7071 0.0000 -0.7071
vn -0.7071 0.0000 0.7071
usemtl Material
s off
f 4/1/1 7/2/1 86/3/1 81/4/1
f 16/5/2 13/6/2 10/7/2 11/8/2
f 8/9/3 5/10/3 14/11/3 15/12/3
f 10/7/4 13/6/4 20/13/4 23/14/4
f 4/1/5 1/15/5 6/16/5 7/2/5
f 1/15/6 4/1/6 3/17/6 2/18/6
f 15/12/7 14/11/7 13/6/7 16/5/7
f 5/10/8 8/9/8 7/19/8 6/20/8
f 9/21/9 12/22/9 11/23/9 10/24/9
f 12/22/10 9/21/10 2/25/10 3/26/10
f 19/27/11 22/28/11 30/29/11 27/30/11
f 9/21/12 10/24/12 23/31/12 24/32/12
f 14/11/13 5/10/13 22/28/13 19/27/13
f 6/16/14 1/15/14 18/33/14 21/34/14
f 5/10/15 6/20/15 21/35/15 22/28/15
f 2/25/16 9/21/16 24/32/16 17/36/16
f 13/6/17 14/11/17 19/27/17 20/13/17
f 1/15/18 2/18/18 17/37/18 18/33/18
f 30/29/19 29/38/19 37/39/19 38/40/19
f 21/34/20 18/33/20 26/41/20 29/42/20
f 24/32/21 23/31/21 31/43/21 32/44/21
f 20/13/22 19/27/22 27/30/22 28/45/22
f 23/14/23 20/13/23 28/45/23 31/46/23
f 17/36/24 24/32/24 32/44/24 25/47/24
f 22/28/25 21/35/25 29/38/25 30/29/25
f 18/33/26 17/37/26 25/48/26 26/41/26
f 39/49/27 36/50/27 44/51/27 47/52/27
f 26/41/19 25/48/19 33/53/19 34/54/19
f 27/30/19 30/29/19 38/40/19 35/55/19
f 29/42/19 26/41/19 34/54/19 37/56/19
f 32/44/19 31/43/19 39/57/19 40/58/19
f 28/45/19 27/30/19 35/55/19 36/50/19
f 31/46/19 28/45/19 36/50/19 39/49/19
f 25/47/19 32/44/19 40/58/19 33/59/19
f 48/60/28 47/61/28 55/62/28 56/63/28
f 33/59/29 40/58/29 48/60/29 41/64/29
f 38/40/30 37/39/30 45/65/30 46/66/30
f 34/54/31 33/53/31 41/67/31 42/68/31
f 35/55/32 38/40/32 46/66/32 43/69/32
f 37/56/1 34/54/1 42/68/1 45/70/1
f 40/58/33 39/57/33 47/61/33 48/60/33
f 36/50/34 35/55/34 43/69/34 44/51/34
f 51/71/32 54/72/32 62/73/32 59/74/32
f 44/51/28 43/69/28 51/71/28 52/75/28
f 47/52/28 44/51/28 52/75/28 55/76/28
f 41/64/28 48/60/28 56/63/28 49/77/28
f 46/66/28 45/65/28 53/78/28 54/72/28
f 42/68/28 41/67/28 49/79/28 50/80/28
f 43/69/28 46/66/28 54/72/28 51/71/28
f 45/70/28 42/68/28 50/80/28 53/81/28
f 57/82/19 64/83/19 72/84/19 65/85/19
f 53/81/1 50/80/1 58/86/1 61/87/1
f 56/63/33 55/62/33 63/88/33 64/83/33
f 52/75/34 51/71/34 59/74/34 60/89/34
f 55/76/27 52/75/27 60/89/27 63/90/27
f 49/77/29 56/63/29 64/83/29 57/82/29
f 54/72/30 53/78/30 61/91/30 62/73/30
f 50/80/31 49/79/31 57/92/31 58/86/31
f 71/93/27 68/94/27 76/95/27 79/96/27
f 62/73/19 61/91/19 69/97/19 70/98/19
f 58/86/19 57/92/19 65/99/19 66/100/19
f 59/74/19 62/73/19 70/98/19 67/101/19
f 61/87/19 58/86/19 66/100/19 69/102/19
f 64/83/19 63/88/19 71/103/19 72/84/19
f 60/89/19 59/74/19 67/101/19 68/94/19
f 63/90/19 60/89/19 68/94/19 71/93/19
f 74/104/19 73/105/19 80/106/19 79/107/19 76/108/19 75/109/19 78/110/19 77/111/19
f 65/85/29 72/84/29 80/112/29 73/113/29
f 70/98/30 69/97/30 77/114/30 78/115/30
f 66/100/31 65/99/31 73/116/31 74/117/31
f 67/101/32 70/98/32 78/115/32 75/118/32
f 69/102/1 66/100/1 74/117/1 77/119/1
f 72/84/33 71/103/33 79/120/33 80/112/33
f 68/94/34 67/101/34 75/118/34 76/95/34
f 88/121/28 87/122/28 82/123/28 81/124/28 86/125/28 85/126/28 84/127/28 83/128/28
f 12/22/29 3/26/29 82/129/29 87/130/29
f 11/23/33 12/22/33 87/130/33 88/131/33
f 8/9/32 15/12/32 84/132/32 85/133/32
f 7/19/30 8/9/30 85/133/30 86/134/30
f 15/12/34 16/5/34 83/135/34 84/132/34
f 3/17/31 4/1/31 81/4/31 82/136/31
f 16/5/27 11/8/27 88/137/27 83/135/27
